<svg xmlns="http://www.w3.org/2000/svg" viewBox="0 0 512 512" width="512" height="512" role="img" aria-label="精準進貨 App 圖示：蔬果">
  <defs>
    <linearGradient id="bg" x1="0" y1="0" x2="0" y2="1">
      <stop offset="0" stop-color="#3A2614"/>
      <stop offset="1" stop-color="#180F0A"/>
    </linearGradient>
    <radialGradient id="glow" cx="0.5" cy="0.30" r="0.72">
      <stop offset="0" stop-color="#C4762A" stop-opacity="0.5"/>
      <stop offset="1" stop-color="#C4762A" stop-opacity="0"/>
    </radialGradient>
    <linearGradient id="apple" x1="0" y1="0" x2="0.2" y2="1">
      <stop offset="0" stop-color="#F0574A"/>
      <stop offset="1" stop-color="#D23528"/>
    </linearGradient>
    <linearGradient id="orange" x1="0" y1="0" x2="0" y2="1">
      <stop offset="0" stop-color="#FBA53A"/>
      <stop offset="1" stop-color="#F0851E"/>
    </linearGradient>
  </defs>

  <!-- 底：深莓紫（水果配色，與精準務農綠色系區別） -->
  <rect width="512" height="512" fill="url(#bg)"/>
  <rect width="512" height="512" fill="url(#glow)"/>

  <!-- 蔬菜：葉菜（青江/白菜）襯於後方 -->
  <g stroke="#25451f" stroke-width="5" stroke-linejoin="round">
    <path d="M196 250C158 232 138 180 150 132C186 150 210 196 214 252Z" fill="#5ba33f"/>
    <path d="M316 250C354 232 374 180 362 132C326 150 302 196 298 252Z" fill="#4f9137"/>
    <path d="M256 268C232 224 232 168 256 120C280 168 280 224 256 268Z" fill="#6fb84a"/>
  </g>
  <g fill="#eef3e0" stroke="#c2cfa6" stroke-width="4">
    <path d="M214 256C204 214 214 168 244 150C256 190 252 232 236 262Z"/>
    <path d="M298 256C308 214 298 168 268 150C256 190 260 232 276 262Z"/>
  </g>

  <!-- 葡萄：一串紫葡萄（品牌紫＋水果多樣） -->
  <g>
    <path d="M172 226C158 214 158 196 176 192C180 208 178 220 172 228Z" fill="#5ba33f" stroke="#2f5a26" stroke-width="3"/>
    <g stroke="#4d2a6b" stroke-width="4" fill="#B267E0">
      <circle cx="150" cy="268" r="26"/><circle cx="200" cy="268" r="26"/>
      <circle cx="126" cy="308" r="26" fill="#9A4FCB"/><circle cx="175" cy="312" r="27"/><circle cx="224" cy="308" r="26" fill="#9A4FCB"/>
      <circle cx="150" cy="352" r="26"/><circle cx="200" cy="352" r="26" fill="#9A4FCB"/>
      <circle cx="176" cy="392" r="25"/>
    </g>
    <g fill="#D79BF0" opacity="0.65">
      <circle cx="142" cy="260" r="7"/><circle cx="192" cy="260" r="7"/><circle cx="167" cy="304" r="7"/><circle cx="168" cy="384" r="6"/>
    </g>
  </g>

  <!-- 蘋果：主角紅蘋果 -->
  <g>
    <path d="M310 214C334 194 372 200 388 224C332 214 316 236 312 258Z" fill="#5ba33f" stroke="#2f5a26" stroke-width="4"/>
    <path d="M300 210C302 182 296 156 300 138" fill="none" stroke="#6E4A22" stroke-width="9" stroke-linecap="round"/>
    <path d="M300 226C276 198 240 194 218 216C190 244 188 312 210 362C230 408 272 424 300 410C328 424 370 408 390 362C412 312 410 244 382 216C360 194 324 198 300 226Z" fill="url(#apple)" stroke="#A32A1F" stroke-width="5"/>
    <path d="M236 250C218 274 216 312 226 344C214 306 224 268 250 246C246 246 240 247 236 250Z" fill="#F7A38F" opacity="0.55"/>
  </g>

  <!-- 橘子：小柑橘點綴 -->
  <g>
    <circle cx="352" cy="376" r="62" fill="url(#orange)" stroke="#C06A18" stroke-width="5"/>
    <path d="M344 318C346 306 356 300 368 304C364 314 356 320 346 320Z" fill="#5ba33f" stroke="#2f5a26" stroke-width="3"/>
    <ellipse cx="330" cy="352" rx="16" ry="11" fill="#FFD08A" opacity="0.65"/>
  </g>
</svg>
